<svg xmlns="http://www.w3.org/2000/svg" width="32" height="32" viewBox="0 0 8.467 8.467" id="add-mail">
  <g transform="translate(-.002 -50.798)">
    <path fill="#0087d1" d="m 1.3244669,52.384914 c -0.43516137,0 -0.79323318,0.359625 -0.79323318,0.794785 v 3.703132 c 0,0.435163 0.35807242,0.794784 0.79323318,0.794784 h 5.8218669 c 0.4351605,0 0.7932333,-0.359621 0.793233,-0.794784 v -3.703132 c 0,-0.43516 -0.3580717,-0.794785 -0.793233,-0.794785 z" color="#000" font-family="sans-serif" font-weight="400" overflow="visible" paint-order="markers fill stroke" style="line-height:normal;font-variant-ligatures:normal;font-variant-position:normal;font-variant-caps:normal;font-variant-numeric:normal;font-variant-alternates:normal;font-feature-settings:normal;text-indent:0;text-align:start;text-decoration-line:none;text-decoration-style:solid;text-decoration-color:#000;text-transform:none;text-orientation:mixed;shape-padding:0;isolation:auto;mix-blend-mode:normal"></path>
    <path fill="#0178be" d="m 4.2333333,52.384914 v 5.292701 h 2.9130005 c 0.4351605,0 0.7932333,-0.359621 0.793233,-0.794784 v -3.703132 c 0,-0.43516 -0.3580717,-0.794785 -0.793233,-0.794785 z" color="#000" font-family="sans-serif" font-weight="400" overflow="visible" paint-order="markers fill stroke" style="line-height:normal;font-variant-ligatures:normal;font-variant-position:normal;font-variant-caps:normal;font-variant-numeric:normal;font-variant-alternates:normal;font-feature-settings:normal;text-indent:0;text-align:start;text-decoration-line:none;text-decoration-style:solid;text-decoration-color:#000;text-transform:none;text-orientation:mixed;shape-padding:0;isolation:auto;mix-blend-mode:normal"></path>
    <path fill="#c8d4dd" d="m 1.3244669,52.384914 c -0.2948775,0 -0.5511601,0.166892 -0.68781326,0.408763 l 3.42563076,2.966225 a 0.26460981,0.26460981 0 0 0 0.3457152,0 l 3.425114,-2.967775 C 7.6962195,52.551136 7.4405547,52.384914 7.1463338,52.384914 Z" color="#000" font-family="sans-serif" font-weight="400" overflow="visible" paint-order="markers fill stroke" style="line-height:normal;font-variant-ligatures:normal;font-variant-position:normal;font-variant-caps:normal;font-variant-numeric:normal;font-variant-alternates:normal;font-feature-settings:normal;text-indent:0;text-align:start;text-decoration-line:none;text-decoration-style:solid;text-decoration-color:#000;text-transform:none;text-orientation:mixed;shape-padding:0;isolation:auto;mix-blend-mode:normal"></path>
    <path fill="#aebdc0" d="m 6.3458658,55.294815 a 0.26460981,0.26460981 0 0 0 -0.2599325,0.267684 v 0.263549 H 5.8203165 a 0.2646485,0.2646485 0 1 0 0,0.529167 h 0.2656168 v 0.266134 a 0.26464844,0.26464844 0 0 0 0.5291667,0 v -0.266134 h 0.2635498 a 0.2646485,0.2646485 0 1 0 0,-0.529167 H 6.6151 V 55.562499 A 0.26460981,0.26460981 0 0 0 6.3458658,55.294815 Z" color="#000" font-family="sans-serif" font-weight="400" overflow="visible" style="line-height:normal;font-variant-ligatures:normal;font-variant-position:normal;font-variant-caps:normal;font-variant-numeric:normal;font-variant-alternates:normal;font-feature-settings:normal;text-indent:0;text-align:start;text-decoration-line:none;text-decoration-style:solid;text-decoration-color:#000;text-transform:none;text-orientation:mixed;shape-padding:0;isolation:auto;mix-blend-mode:normal"></path>
    <path fill="#aebdc0" d="m 4.2333333,52.384914 v 3.439068 a 0.26460981,0.26460981 0 0 0 0.1746663,-0.06408 l 3.425114,-2.967775 C 7.6962195,52.551136 7.4405547,52.384914 7.1463338,52.384914 Z" color="#000" font-family="sans-serif" font-weight="400" overflow="visible" paint-order="markers fill stroke" style="line-height:normal;font-variant-ligatures:normal;font-variant-position:normal;font-variant-caps:normal;font-variant-numeric:normal;font-variant-alternates:normal;font-feature-settings:normal;text-indent:0;text-align:start;text-decoration-line:none;text-decoration-style:solid;text-decoration-color:#000;text-transform:none;text-orientation:mixed;shape-padding:0;isolation:auto;mix-blend-mode:normal"></path>
  </g>
</svg>
