<svg xmlns="http://www.w3.org/2000/svg" viewBox="0 0 64 64" id="delete-mail">
  <rect width="52" height="36" x="3" y="9" fill="#ffd54f" rx="7.23"></rect>
  <path fill="#ffc107" d="M54.29 40.87 34.9 24.3a8.93 8.93 0 0 0-11.82 0L3.9 41.26A7.22 7.22 0 0 0 10.23 45h37.54a7.22 7.22 0 0 0 6.52-4.13Z"></path>
  <path fill="#ffd54f" d="M53.19 42.56A7.19 7.19 0 0 1 47.78 45H10.22a7.17 7.17 0 0 1-5.11-2.13l19.3-17.07a7 7 0 0 1 9.18 0Z"></path>
  <path fill="#ffc107" d="M49 29a14 14 0 0 0-14 14 14.71 14.71 0 0 0 .16 2h12.61A7.23 7.23 0 0 0 55 37.77v-7.4A13.87 13.87 0 0 0 49 29Z"></path>
  <circle cx="49" cy="43" r="12" fill="#f3f5f9"></circle>
  <path fill="#ffc107" d="M47.77 9H10.23a7.23 7.23 0 0 0-6.07 3.3l18.91 16a9.16 9.16 0 0 0 11.86 0l18.91-16A7.23 7.23 0 0 0 47.77 9Z"></path>
  <path fill="#ffd54f" d="m52.53 10.78-18.89 16a7.2 7.2 0 0 1-9.28 0l-18.89-16A7.15 7.15 0 0 1 10.22 9h37.56a7.15 7.15 0 0 1 4.75 1.78Z"></path>
  <rect width="14" height="5" x="42" y="40.5" fill="#c02027" rx="2.5"></rect>
  <rect width="2" height="6" x="6" y="18" fill="#fff" rx="1"></rect>
  <circle cx="7" cy="27" r="1" fill="#fff"></circle>
</svg>
