<svg xmlns="http://www.w3.org/2000/svg" width="24" height="24" fill="none" viewBox="0 0 24 24" id="mail-edit">
  <path fill="#01CAA1" d="M19 5H5C3.35 5 2 6.35 2 8V16C2 17.65 3.35 19 5 19H11C11.55 19 12 18.55 12 18C12 15.24 14.24 13 17 13H21C21.55 13 22 12.55 22 12V8C22 6.35 20.65 5 19 5ZM17.37 10.91L12.36 12.92C12.24 12.97 12.12 12.99 11.99 12.99C11.86 12.99 11.74 12.97 11.62 12.92L6.62 10.92C6.11 10.71 5.86 10.13 6.06 9.62C6.27 9.11 6.85 8.86 7.36 9.06L11.99 10.91L16.63 9.05C17.14 8.85 17.72 9.1 17.93 9.61C18.13 10.12 17.88 10.7 17.37 10.91ZM20.89 16.03C21.28 16.42 21.28 17.05 20.89 17.44L17.35 20.97C17.24 21.08 17.11 21.17 16.96 21.22L14.84 21.92C14.74 21.96 14.63 21.97 14.53 21.97C14.26 21.97 14.01 21.87 13.82 21.68C13.55 21.41 13.46 21.02 13.58 20.66L14.28 18.54C14.33 18.39 14.42 18.26 14.53 18.15L18.06 14.61C18.45 14.22 19.08 14.22 19.47 14.61L20.89 16.03Z"></path>
</svg>
